<svg xmlns="http://www.w3.org/2000/svg" viewBox="0 0 200 200">
  <circle cx="100" cy="100" r="100" fill="#1565C0"/>
  <g transform="translate(100,100) rotate(25)">
    <path d="M0 -55 C20 -35 35 -10 35 15 C35 35 25 45 15 45 C5 45 -5 35 -5 20 C-5 5 5 -10 0 -30Z" fill="white"/>
    <path d="M0 -55 C-20 -35 -35 -10 -35 15 C-35 35 -25 45 -15 45 C-5 45 5 35 5 20 C5 5 -5 -10 0 -30Z" fill="white" opacity="0.7"/>
  </g>
  <g transform="translate(100,100)">
    <path d="M0 15 L0 30" stroke="white" stroke-width="5" stroke-linecap="round"/>
  </g>
</svg>